<svg xmlns="http://www.w3.org/2000/svg" xmlns:xlink="http://www.w3.org/1999/xlink" width="190" zoomAndPan="magnify" viewBox="0 0 142.5 30.000001" height="40" preserveAspectRatio="xMidYMid meet" version="1.0"><defs><clipPath id="fc135cb29c"><path d="M 22.183594 3 L 36 3 L 36 26.902344 L 22.183594 26.902344 Z M 22.183594 3 " clip-rule="nonzero"/></clipPath><clipPath id="b583a820e3"><path d="M 38 3 L 45 3 L 45 26.902344 L 38 26.902344 Z M 38 3 " clip-rule="nonzero"/></clipPath><clipPath id="d06f61b55c"><path d="M 47 2.222656 L 53 2.222656 L 53 26.902344 L 47 26.902344 Z M 47 2.222656 " clip-rule="nonzero"/></clipPath><clipPath id="d18fde727c"><path d="M 55 11 L 81 11 L 81 26.902344 L 55 26.902344 Z M 55 11 " clip-rule="nonzero"/></clipPath><clipPath id="bb6642eae3"><path d="M 82 11 L 100 11 L 100 26.902344 L 82 26.902344 Z M 82 11 " clip-rule="nonzero"/></clipPath><clipPath id="1e8015d538"><path d="M 101 12 L 120.167969 12 L 120.167969 26.902344 L 101 26.902344 Z M 101 12 " clip-rule="nonzero"/></clipPath><clipPath id="2ee8341123"><path d="M 89.121094 16.957031 L 93.679688 16.957031 L 93.679688 21.625 L 89.121094 21.625 Z M 89.121094 16.957031 " clip-rule="nonzero"/></clipPath><clipPath id="f5874846d4"><path d="M 91.402344 16.957031 C 90.144531 16.957031 89.121094 18 89.121094 19.289062 C 89.121094 20.578125 90.144531 21.625 91.402344 21.625 C 92.660156 21.625 93.679688 20.578125 93.679688 19.289062 C 93.679688 18 92.660156 16.957031 91.402344 16.957031 Z M 91.402344 16.957031 " clip-rule="nonzero"/></clipPath></defs><g clip-path="url(#fc135cb29c)"><path fill="#ffffff" d="M 35.835938 3.207031 L 35.835938 7.863281 L 27.574219 7.863281 L 27.574219 12.484375 L 35.203125 12.484375 L 35.203125 17.140625 L 27.574219 17.140625 L 27.574219 26.480469 L 22.203125 26.480469 L 22.203125 3.207031 Z M 35.835938 3.207031 " fill-opacity="1" fill-rule="nonzero"/></g><g clip-path="url(#b583a820e3)"><path fill="#ffffff" d="M 38.886719 3.941406 C 39.480469 3.359375 40.1875 3.066406 41.003906 3.066406 C 41.820312 3.066406 42.527344 3.359375 43.121094 3.941406 C 43.710938 4.523438 44.003906 5.21875 44.003906 6.03125 C 44.003906 6.839844 43.710938 7.535156 43.121094 8.117188 C 42.527344 8.703125 41.824219 8.992188 41.003906 8.992188 C 40.183594 8.992188 39.480469 8.703125 38.886719 8.117188 C 38.296875 7.535156 38.003906 6.839844 38.003906 6.03125 C 38.003906 5.21875 38.296875 4.523438 38.886719 3.941406 Z M 38.40625 12.007812 L 38.40625 26.480469 L 43.460938 26.480469 L 43.460938 12.007812 Z M 38.40625 12.007812 " fill-opacity="1" fill-rule="nonzero"/></g><g clip-path="url(#d06f61b55c)"><path fill="#ffffff" d="M 47.035156 2.222656 L 52.089844 2.222656 L 52.089844 26.480469 L 47.035156 26.480469 Z M 47.035156 2.222656 " fill-opacity="1" fill-rule="nonzero"/></g><g clip-path="url(#d18fde727c)"><path fill="#ffffff" d="M 55.519531 26.480469 L 55.519531 12.007812 L 60.574219 12.007812 L 60.574219 13.53125 L 60.636719 13.53125 C 61.949219 12.234375 63.347656 11.589844 64.839844 11.589844 C 65.902344 11.589844 66.898438 11.804688 67.832031 12.234375 C 68.769531 12.667969 69.472656 13.335938 69.949219 14.238281 C 71.433594 12.472656 73.050781 11.589844 74.804688 11.589844 C 76.367188 11.589844 77.710938 12.023438 78.835938 12.890625 C 79.960938 13.753906 80.523438 15.105469 80.523438 16.945312 L 80.523438 26.480469 L 75.460938 26.480469 L 75.460938 18.300781 C 75.460938 17.527344 75.246094 16.882812 74.820312 16.363281 C 74.394531 15.847656 73.75 15.589844 72.894531 15.589844 C 72.152344 15.589844 71.585938 15.8125 71.191406 16.253906 C 70.800781 16.695312 70.585938 17.226562 70.550781 17.847656 L 70.550781 26.480469 L 65.492188 26.480469 L 65.492188 18.300781 C 65.492188 17.527344 65.277344 16.882812 64.851562 16.363281 C 64.421875 15.847656 63.777344 15.589844 62.917969 15.589844 C 62.140625 15.589844 61.554688 15.832031 61.164062 16.308594 C 60.769531 16.792969 60.574219 17.359375 60.574219 18.019531 L 60.574219 26.480469 Z M 55.519531 26.480469 " fill-opacity="1" fill-rule="nonzero"/></g><g clip-path="url(#bb6642eae3)"><path fill="#ffffff" d="M 96.332031 12.007812 C 96.21875 12.015625 96.101562 12.019531 95.984375 12.007812 L 95.292969 12.007812 C 94.960938 12.007812 94.695312 12.277344 94.695312 12.605469 L 94.695312 13.390625 C 93.4375 12.1875 91.835938 11.589844 89.894531 11.589844 C 87.777344 11.589844 86.035156 12.332031 84.660156 13.816406 C 83.289062 15.300781 82.605469 17.113281 82.605469 19.261719 C 82.605469 21.40625 83.289062 23.210938 84.660156 24.691406 C 86.03125 26.164062 87.777344 26.902344 89.894531 26.902344 C 91.835938 26.902344 93.4375 26.214844 94.695312 24.84375 L 94.75 24.84375 L 94.75 25.882812 C 94.75 26.214844 95.019531 26.480469 95.347656 26.480469 L 99.152344 26.480469 C 99.484375 26.480469 99.75 26.214844 99.75 25.882812 L 99.75 12.605469 C 99.75 12.277344 99.484375 12.011719 99.152344 12.011719 L 96.332031 12.011719 Z M 93.847656 21.683594 C 93.210938 22.324219 92.398438 22.644531 91.410156 22.644531 C 90.421875 22.644531 89.546875 22.332031 88.917969 21.703125 C 88.289062 21.074219 87.976562 20.257812 87.976562 19.261719 C 87.976562 18.261719 88.304688 17.445312 88.960938 16.804688 C 89.617188 16.167969 90.433594 15.84375 91.410156 15.84375 C 92.386719 15.84375 93.160156 16.167969 93.816406 16.804688 C 94.476562 17.445312 94.808594 18.261719 94.808594 19.261719 C 94.808594 20.257812 94.488281 21.046875 93.847656 21.683594 Z M 93.847656 21.683594 " fill-opacity="1" fill-rule="nonzero"/></g><g clip-path="url(#1e8015d538)"><path fill="#ffffff" d="M 120.148438 26.480469 L 114.035156 26.480469 L 110.808594 22.386719 L 107.578125 26.480469 L 101.464844 26.480469 L 107.71875 18.917969 L 102.347656 12.007812 L 108.261719 12.007812 L 110.804688 15.367188 L 113.347656 12.007812 L 119.265625 12.007812 L 113.894531 18.917969 Z M 120.148438 26.480469 " fill-opacity="1" fill-rule="nonzero"/></g><g clip-path="url(#2ee8341123)"><g clip-path="url(#f5874846d4)"><path fill="#cb161a" d="M 89.121094 16.957031 L 93.679688 16.957031 L 93.679688 21.632812 L 89.121094 21.632812 Z M 89.121094 16.957031 " fill-opacity="1" fill-rule="nonzero"/></g></g><path fill="#cb161a" d="M 89.023438 6.042969 C 89.253906 5.976562 89.5 6.066406 89.632812 6.261719 L 90.492188 7.515625 L 91.996094 5.382812 C 92.121094 5.207031 92.339844 5.117188 92.554688 5.160156 C 92.769531 5.199219 92.941406 5.363281 92.988281 5.570312 L 93.578125 8.097656 L 94.851562 7.25 C 95.050781 7.117188 95.308594 7.125 95.5 7.265625 C 95.6875 7.410156 95.761719 7.65625 95.683594 7.878906 L 94.550781 11.082031 C 94.460938 11.339844 94.191406 11.492188 93.921875 11.441406 L 93.914062 11.433594 C 92.46875 10.40625 90.636719 10.0625 88.910156 10.492188 C 88.636719 10.441406 88.449219 10.203125 88.460938 9.929688 L 88.621094 6.542969 C 88.632812 6.308594 88.796875 6.105469 89.027344 6.042969 Z M 89.023438 6.042969 " fill-opacity="1" fill-rule="nonzero"/></svg>