<svg width="150" height="30" viewBox="0 0 1340 244" fill="none" xmlns="http://www.w3.org/2000/svg">
<path d="M332.048 157.152C326.672 157.152 321.52 156.448 316.592 155.04C311.664 153.568 307.696 151.68 304.688 149.376L309.968 137.664C312.848 139.712 316.24 141.408 320.144 142.752C324.112 144.032 328.112 144.672 332.144 144.672C335.216 144.672 337.68 144.384 339.536 143.808C341.456 143.168 342.864 142.304 343.76 141.216C344.656 140.128 345.104 138.88 345.104 137.472C345.104 135.68 344.4 134.272 342.992 133.248C341.584 132.16 339.728 131.296 337.424 130.656C335.12 129.952 332.56 129.312 329.744 128.736C326.992 128.096 324.208 127.328 321.392 126.432C318.64 125.536 316.112 124.384 313.808 122.976C311.504 121.568 309.616 119.712 308.144 117.408C306.736 115.104 306.032 112.16 306.032 108.576C306.032 104.736 307.056 101.248 309.104 98.112C311.216 94.912 314.352 92.384 318.512 90.528C322.736 88.608 328.016 87.648 334.352 87.648C338.576 87.648 342.736 88.16 346.832 89.184C350.928 90.144 354.544 91.616 357.68 93.6L352.88 105.408C349.744 103.616 346.608 102.304 343.472 101.472C340.336 100.576 337.264 100.128 334.256 100.128C331.248 100.128 328.784 100.48 326.864 101.184C324.944 101.888 323.568 102.816 322.736 103.968C321.904 105.056 321.488 106.336 321.488 107.808C321.488 109.536 322.192 110.944 323.6 112.032C325.008 113.056 326.864 113.888 329.168 114.528C331.472 115.168 334 115.808 336.752 116.448C339.568 117.088 342.352 117.824 345.104 118.656C347.92 119.488 350.48 120.608 352.784 122.016C355.088 123.424 356.944 125.28 358.352 127.584C359.824 129.888 360.56 132.8 360.56 136.32C360.56 140.096 359.504 143.552 357.392 146.688C355.28 149.824 352.112 152.352 347.888 154.272C343.728 156.192 338.448 157.152 332.048 157.152ZM402.771 115.872H435.123V127.968H402.771V115.872ZM403.923 143.52H440.499V156H388.467V88.8H439.251V101.28H403.923V143.52ZM470.153 156V88.8H483.017L522.665 137.184H516.425V88.8H531.785V156H519.017L479.273 107.616H485.513V156H470.153ZM564.964 156V88.8H594.052C600.068 88.8 605.252 89.792 609.604 91.776C613.956 93.696 617.316 96.48 619.684 100.128C622.052 103.776 623.236 108.128 623.236 113.184C623.236 118.176 622.052 122.496 619.684 126.144C617.316 129.792 613.956 132.608 609.604 134.592C605.252 136.512 600.068 137.472 594.052 137.472H573.604L580.516 130.464V156H564.964ZM580.516 132.192L573.604 124.8H593.188C597.988 124.8 601.572 123.776 603.94 121.728C606.308 119.68 607.492 116.832 607.492 113.184C607.492 109.472 606.308 106.592 603.94 104.544C601.572 102.496 597.988 101.472 593.188 101.472H573.604L580.516 94.08V132.192ZM639.412 156L669.364 88.8H684.724L714.772 156H698.452L673.876 96.672H680.02L655.348 156H639.412ZM654.388 141.6L658.516 129.792H693.076L697.3 141.6H654.388ZM739.024 156V88.8H754.576V156H739.024Z" fill="#E50914"/>
<path d="M784.828 134.976V122.976H811.996V134.976H784.828ZM862.977 157.152C857.601 157.152 852.449 156.448 847.521 155.04C842.593 153.568 838.625 151.68 835.617 149.376L840.897 137.664C843.777 139.712 847.169 141.408 851.073 142.752C855.041 144.032 859.041 144.672 863.073 144.672C866.145 144.672 868.609 144.384 870.465 143.808C872.385 143.168 873.793 142.304 874.689 141.216C875.585 140.128 876.033 138.88 876.033 137.472C876.033 135.68 875.329 134.272 873.921 133.248C872.513 132.16 870.657 131.296 868.353 130.656C866.049 129.952 863.489 129.312 860.673 128.736C857.921 128.096 855.137 127.328 852.321 126.432C849.569 125.536 847.041 124.384 844.737 122.976C842.433 121.568 840.545 119.712 839.073 117.408C837.665 115.104 836.961 112.16 836.961 108.576C836.961 104.736 837.985 101.248 840.033 98.112C842.145 94.912 845.281 92.384 849.441 90.528C853.665 88.608 858.945 87.648 865.281 87.648C869.505 87.648 873.665 88.16 877.761 89.184C881.857 90.144 885.473 91.616 888.609 93.6L883.809 105.408C880.673 103.616 877.537 102.304 874.401 101.472C871.265 100.576 868.193 100.128 865.185 100.128C862.177 100.128 859.713 100.48 857.793 101.184C855.873 101.888 854.497 102.816 853.665 103.968C852.833 105.056 852.417 106.336 852.417 107.808C852.417 109.536 853.121 110.944 854.529 112.032C855.937 113.056 857.793 113.888 860.097 114.528C862.401 115.168 864.929 115.808 867.681 116.448C870.497 117.088 873.281 117.824 876.033 118.656C878.849 119.488 881.409 120.608 883.713 122.016C886.017 123.424 887.873 125.28 889.281 127.584C890.753 129.888 891.489 132.8 891.489 136.32C891.489 140.096 890.433 143.552 888.321 146.688C886.209 149.824 883.041 152.352 878.817 154.272C874.657 156.192 869.377 157.152 862.977 157.152ZM932.378 156V101.472H910.874V88.8H969.434V101.472H947.93V156H932.378ZM995.082 156V88.8H1024.17C1030.19 88.8 1035.37 89.792 1039.72 91.776C1044.07 93.696 1047.43 96.48 1049.8 100.128C1052.17 103.776 1053.35 108.128 1053.35 113.184C1053.35 118.176 1052.17 122.496 1049.8 126.144C1047.43 129.728 1044.07 132.48 1039.72 134.4C1035.37 136.32 1030.19 137.28 1024.17 137.28H1003.72L1010.63 130.464V156H995.082ZM1037.8 156L1021 131.616H1037.61L1054.6 156H1037.8ZM1010.63 132.192L1003.72 124.896H1023.31C1028.11 124.896 1031.69 123.872 1034.06 121.824C1036.43 119.712 1037.61 116.832 1037.61 113.184C1037.61 109.472 1036.43 106.592 1034.06 104.544C1031.69 102.496 1028.11 101.472 1023.31 101.472H1003.72L1010.63 94.08V132.192ZM1097.26 115.872H1129.61V127.968H1097.26V115.872ZM1098.41 143.52H1134.99V156H1082.96V88.8H1133.74V101.28H1098.41V143.52ZM1155.81 156L1185.76 88.8H1201.12L1231.17 156H1214.85L1190.27 96.672H1196.42L1171.75 156H1155.81ZM1170.79 141.6L1174.91 129.792H1209.47L1213.7 141.6H1170.79ZM1255.42 156V88.8H1268.29L1296.89 136.224H1290.08L1318.21 88.8H1330.97L1331.17 156H1316.57L1316.48 111.168H1319.17L1296.7 148.896H1289.69L1266.75 111.168H1270.01V156H1255.42Z" fill="#E50914"/>
<path d="M784.828 134.976V122.976H811.996V134.976H784.828ZM862.977 157.152C857.601 157.152 852.449 156.448 847.521 155.04C842.593 153.568 838.625 151.68 835.617 149.376L840.897 137.664C843.777 139.712 847.169 141.408 851.073 142.752C855.041 144.032 859.041 144.672 863.073 144.672C866.145 144.672 868.609 144.384 870.465 143.808C872.385 143.168 873.793 142.304 874.689 141.216C875.585 140.128 876.033 138.88 876.033 137.472C876.033 135.68 875.329 134.272 873.921 133.248C872.513 132.16 870.657 131.296 868.353 130.656C866.049 129.952 863.489 129.312 860.673 128.736C857.921 128.096 855.137 127.328 852.321 126.432C849.569 125.536 847.041 124.384 844.737 122.976C842.433 121.568 840.545 119.712 839.073 117.408C837.665 115.104 836.961 112.16 836.961 108.576C836.961 104.736 837.985 101.248 840.033 98.112C842.145 94.912 845.281 92.384 849.441 90.528C853.665 88.608 858.945 87.648 865.281 87.648C869.505 87.648 873.665 88.16 877.761 89.184C881.857 90.144 885.473 91.616 888.609 93.6L883.809 105.408C880.673 103.616 877.537 102.304 874.401 101.472C871.265 100.576 868.193 100.128 865.185 100.128C862.177 100.128 859.713 100.48 857.793 101.184C855.873 101.888 854.497 102.816 853.665 103.968C852.833 105.056 852.417 106.336 852.417 107.808C852.417 109.536 853.121 110.944 854.529 112.032C855.937 113.056 857.793 113.888 860.097 114.528C862.401 115.168 864.929 115.808 867.681 116.448C870.497 117.088 873.281 117.824 876.033 118.656C878.849 119.488 881.409 120.608 883.713 122.016C886.017 123.424 887.873 125.28 889.281 127.584C890.753 129.888 891.489 132.8 891.489 136.32C891.489 140.096 890.433 143.552 888.321 146.688C886.209 149.824 883.041 152.352 878.817 154.272C874.657 156.192 869.377 157.152 862.977 157.152ZM932.378 156V101.472H910.874V88.8H969.434V101.472H947.93V156H932.378ZM995.082 156V88.8H1024.17C1030.19 88.8 1035.37 89.792 1039.72 91.776C1044.07 93.696 1047.43 96.48 1049.8 100.128C1052.17 103.776 1053.35 108.128 1053.35 113.184C1053.35 118.176 1052.17 122.496 1049.8 126.144C1047.43 129.728 1044.07 132.48 1039.72 134.4C1035.37 136.32 1030.19 137.28 1024.17 137.28H1003.72L1010.63 130.464V156H995.082ZM1037.8 156L1021 131.616H1037.61L1054.6 156H1037.8ZM1010.63 132.192L1003.72 124.896H1023.31C1028.11 124.896 1031.69 123.872 1034.06 121.824C1036.43 119.712 1037.61 116.832 1037.61 113.184C1037.61 109.472 1036.43 106.592 1034.06 104.544C1031.69 102.496 1028.11 101.472 1023.31 101.472H1003.72L1010.63 94.08V132.192ZM1097.26 115.872H1129.61V127.968H1097.26V115.872ZM1098.41 143.52H1134.99V156H1082.96V88.8H1133.74V101.28H1098.41V143.52ZM1155.81 156L1185.76 88.8H1201.12L1231.17 156H1214.85L1190.27 96.672H1196.42L1171.75 156H1155.81ZM1170.79 141.6L1174.91 129.792H1209.47L1213.7 141.6H1170.79ZM1255.42 156V88.8H1268.29L1296.89 136.224H1290.08L1318.21 88.8H1330.97L1331.17 156H1316.57L1316.48 111.168H1319.17L1296.7 148.896H1289.69L1266.75 111.168H1270.01V156H1255.42Z" fill="white"/>
<path fill-rule="evenodd" clip-rule="evenodd" d="M158.724 161.494L182.723 143.918L182.643 143.936C183.907 141.968 185.601 137.905 183.745 133.745L181.095 130.126L180.352 129.453C180.6 129.658 180.834 129.865 181.056 130.073L166.623 110.365C158.207 98.8735 160.7 82.7348 172.192 74.3185C183.684 65.9022 199.822 68.3955 208.239 79.8874L244.069 128.811C248.538 134.913 249.931 142.326 248.533 149.197C247.791 156.168 244.226 162.812 238.125 167.28L189.202 203.11C188.639 203.522 188.066 203.908 187.482 204.268L154.436 228.469C149.79 231.873 143.264 230.864 139.861 226.218C136.457 221.571 137.466 215.045 142.112 211.642L152.634 203.936C154.043 200.433 153.927 194.568 145.558 197.053L119.407 216.204C114.76 219.608 108.234 218.599 104.831 213.953C101.428 209.306 102.436 202.78 107.083 199.377L157.44 162.497C157.854 162.152 158.282 161.817 158.724 161.494ZM69.9942 224.452C65.3474 227.855 64.3392 234.381 67.7424 239.028C71.1456 243.675 77.6714 244.683 82.3182 241.28L90.9736 234.941C95.6204 231.537 96.6286 225.012 93.2254 220.365C89.8222 215.718 83.2964 214.71 78.6496 218.113L69.9942 224.452Z" fill="white"/>
<path fill-rule="evenodd" clip-rule="evenodd" d="M152.587 2.03375C165.712 -3.50159 180.839 2.6508 186.374 15.7755C191.91 28.9002 185.757 44.0271 172.633 49.5624L127.928 68.4164C125.649 69.8969 122.305 73.7391 123.281 79.3641L142.234 124.303C147.77 137.428 141.617 152.555 128.493 158.09C127.164 158.651 125.814 159.091 124.456 159.417L68.9386 182.832C63.6315 185.07 57.5148 182.582 55.2766 177.275C53.0383 171.968 55.5261 165.851 60.8332 163.613L88.7744 151.829C93.8019 147.364 92.3482 138.158 82.6336 138.373L61.5757 147.254C56.2686 149.492 50.1519 147.004 47.9137 141.697C45.6754 136.39 48.1632 130.273 53.4702 128.035L75.283 118.836L74.7427 119.044C81.8513 114.005 80.7212 101.063 67.7967 103.647L14.4844 126.132C9.17732 128.37 3.06062 125.882 0.822361 120.575C-1.41589 115.268 1.07187 109.152 6.37893 106.913L56.2378 85.8853L54.7087 86.3886C62.8838 81.1436 60.5907 66.4952 44.2905 70.3166L24.0713 78.8441C18.7642 81.0823 12.6475 78.5946 10.4093 73.2875C8.171 67.9804 10.6588 61.8637 15.9658 59.6255L75.8017 34.3897C76.0325 34.2923 76.2649 34.2039 76.4984 34.1243L152.587 2.03375ZM17.085 141.849C11.778 144.087 9.29022 150.204 11.5285 155.511C13.7667 160.818 19.8834 163.306 25.1905 161.068L35.0756 156.898C40.3827 154.66 42.8705 148.544 40.6322 143.236C38.3939 137.929 32.2773 135.442 26.9702 137.68L17.085 141.849Z" fill="#E50914"/>
</svg>
