<?xml version="1.0" encoding="utf-8"?>
<!-- Generator: Adobe Illustrator 16.0.0, SVG Export Plug-In . SVG Version: 6.00 Build 0)  -->
<!DOCTYPE svg PUBLIC "-//W3C//DTD SVG 1.1//EN" "http://www.w3.org/Graphics/SVG/1.1/DTD/svg11.dtd">
<svg version="1.1" id="Calque_1" xmlns="http://www.w3.org/2000/svg" xmlns:xlink="http://www.w3.org/1999/xlink" x="0px" y="0px"
	 width="511.797px" height="100.931px" viewBox="0 12 511.797 100.931" enable-background="new 0 12 511.797 100.931"
	 xml:space="preserve">
<polygon fill="#FFFFFF" points="3.295,51.54 23.637,51.54 13.466,65.963 "/>
<g>
	<linearGradient id="SVGID_1_" gradientUnits="userSpaceOnUse" x1="113.2808" y1="41.6692" x2="113.2808" y2="62.2034">
		<stop  offset="0" style="stop-color:#6FDFE4"/>
		<stop  offset="0.4317" style="stop-color:#6BDECD"/>
		<stop  offset="1" style="stop-color:#65DDAF"/>
	</linearGradient>
	<path fill="url(#SVGID_1_)" d="M113.324,41.669c-5.708,0-10.225,4.26-10.225,10.31c0,5.964,4.09,10.224,10.225,10.224
		c5.879,0,10.139-4.261,10.139-10.224C123.462,45.928,118.947,41.669,113.324,41.669z"/>
	<linearGradient id="SVGID_2_" gradientUnits="userSpaceOnUse" x1="160.0864" y1="41.6692" x2="160.0864" y2="62.2034">
		<stop  offset="0" style="stop-color:#6FDFE4"/>
		<stop  offset="0.4317" style="stop-color:#6BDECD"/>
		<stop  offset="1" style="stop-color:#65DDAF"/>
	</linearGradient>
	<path fill="url(#SVGID_2_)" d="M160.129,41.669c-5.709,0-10.225,4.26-10.225,10.31c0,5.964,4.089,10.224,10.225,10.224
		c5.878,0,10.138-4.261,10.138-10.224C170.268,45.928,165.752,41.669,160.129,41.669z"/>
	<linearGradient id="SVGID_3_" gradientUnits="userSpaceOnUse" x1="153.2861" y1="66.1267" x2="153.2861" y2="84.1003">
		<stop  offset="0" style="stop-color:#6FDFE4"/>
		<stop  offset="1" style="stop-color:#65DDAF"/>
	</linearGradient>
	<path fill="url(#SVGID_3_)" d="M155.614,75.068c-7.441,0-13.579-3.499-17.411-8.941v8.856c0,3.283-0.547,6.209-1.558,8.776
		l10.789-5.282c1.619,2.642,5.283,5.623,11.843,5.623c4.175,0,10.651-2.471,10.651-10.224v-3.237
		C166.69,74.217,161.578,75.068,155.614,75.068z"/>
	<linearGradient id="SVGID_4_" gradientUnits="userSpaceOnUse" x1="114.9448" y1="12.0002" x2="114.9448" y2="112.9319">
		<stop  offset="0" style="stop-color:#6FDFE4"/>
		<stop  offset="1" style="stop-color:#65DDAF"/>
	</linearGradient>
	<path fill="url(#SVGID_4_)" d="M198.414,72.091l16.826-23.86C209.093,27.293,189.75,12,166.824,12H63.083
		c-22.92,0-42.258,15.283-48.412,36.21h15.634L13.528,72.002c4.46,23.311,24.945,40.93,49.555,40.93h103.74
		c24.58,0,45.044-17.575,49.539-40.841H198.414L198.414,72.091z M185.009,74.983c0,14.655-10.821,22.238-25.732,22.238
		c-8.734,0-18.704-1.897-23.573-11.418c-4.025,7.549-12.584,11.418-23.233,11.418c-9.118,0-19.596-2.045-24.198-12.694l12.354-6.05
		c1.62,2.642,5.283,5.623,11.843,5.623c4.175,0,10.65-2.471,10.65-10.224v-3.237c-3.237,3.577-8.349,4.43-14.314,4.43
		c-11.361,0-19.686-8.149-21.396-18.937L66.654,95.944h-17.38l15.081-28.97L43.65,30.082h17.381L73.216,52.49l10.395-22.408h17.382
		l-0.095,0.183c2.409-0.942,5.064-1.461,7.91-1.461c5.794,0,10.481,1.875,14.059,5.197h0.256v-3.919h15.082v7.716
		c3.833-5.466,9.97-8.994,17.411-8.994c5.793,0,10.48,1.875,14.058,5.197h0.255v-3.919h15.081L185.009,74.983L185.009,74.983z"/>
</g>
<polygon fill="#FFFFFF" points="225.424,68.76 205.083,68.76 215.253,54.339 "/>
<g>
	<g>
		<path fill="#FFFFFF" d="M228.785,93.985v1.762h-5.618v-8.278h2.105v6.517H228.785z"/>
	</g>
	<g>
		<path fill="#FFFFFF" d="M231.707,94.222l-0.604,1.524h-2.165l3.571-8.278h2.165l3.489,8.278h-2.248l-0.592-1.524H231.707z
			 M233.528,89.562l-1.206,3.063h2.388L233.528,89.562z"/>
	</g>
	<g>
		<path fill="#FFFFFF" d="M248.893,88.793l-1.217,1.444c-0.544-0.662-1.349-1.076-2.082-1.076c-1.312,0-2.306,1.04-2.306,2.399
			c0,1.385,0.993,2.438,2.306,2.438c0.698,0,1.503-0.38,2.082-0.972l1.23,1.303c-0.888,0.91-2.2,1.514-3.418,1.514
			c-2.495,0-4.353-1.834-4.353-4.259c0-2.388,1.903-4.187,4.423-4.187C246.788,87.398,248.066,87.942,248.893,88.793z"/>
	</g>
	<g>
		<path fill="#FFFFFF" d="M258.132,91.595c0,2.413-1.916,4.247-4.483,4.247c-2.555,0-4.471-1.822-4.471-4.247
			c0-2.411,1.917-4.197,4.471-4.197C256.216,87.398,258.132,89.196,258.132,91.595z M251.332,91.609
			c0,1.396,1.076,2.471,2.341,2.471c1.278,0,2.294-1.077,2.294-2.471c0-1.396-1.016-2.448-2.294-2.448
			C252.396,89.161,251.332,90.213,251.332,91.609z"/>
	</g>
	<g>
		<path fill="#FFFFFF" d="M266.481,95.747l-0.011-5.38l-1.987,4.553h-1.371l-1.988-4.553v5.38h-1.88v-8.29h2.308l2.247,4.933
			l2.248-4.933h2.294v8.29H266.481z"/>
	</g>
	<g>
		<path fill="#FFFFFF" d="M277.247,95.747l-0.013-5.38l-1.986,4.553h-1.372l-1.986-4.553v5.38h-1.88v-8.29h2.306l2.247,4.933
			l2.248-4.933h2.294v8.29H277.247z"/>
	</g>
	<g>
		<path fill="#FFFFFF" d="M288.223,92.27c0,2.188-1.454,3.572-3.771,3.572c-2.332,0-3.821-1.384-3.821-3.572v-4.802h2.105v4.802
			c0,1.124,0.721,1.81,1.726,1.81c0.995,0,1.668-0.686,1.668-1.81v-4.802h2.094V92.27z"/>
	</g>
	<g>
		<path fill="#FFFFFF" d="M295.521,95.747l-3.808-5.097v5.097h-1.975v-8.278h1.857l3.82,5.109v-5.109h1.963v8.278H295.521z"/>
	</g>
	<g>
		<path fill="#FFFFFF" d="M300.916,94.222l-0.604,1.524h-2.165l3.571-8.278h2.165l3.488,8.278h-2.248l-0.591-1.524H300.916z
			 M302.737,89.562l-1.206,3.063h2.389L302.737,89.562z"/>
	</g>
	<g>
		<path fill="#FFFFFF" d="M315.358,92.27c0,2.188-1.454,3.572-3.773,3.572c-2.33,0-3.82-1.384-3.82-3.572v-4.802h2.105v4.802
			c0,1.124,0.721,1.81,1.728,1.81c0.994,0,1.667-0.686,1.667-1.81v-4.802h2.094V92.27z"/>
	</g>
	<g>
		<path fill="#FFFFFF" d="M320.705,89.161v6.588H318.6v-6.588h-2.472v-1.704h7.071v1.704H320.705z"/>
	</g>
	<g>
		<path fill="#FFFFFF" d="M326.207,89.126v1.643h3.949v1.656h-3.949v1.668h4.506v1.656h-6.611v-8.279h6.481v1.656H326.207z
			 M327.907,86.747h-1.561l1.255-1.986l1.844,0.65L327.907,86.747z"/>
	</g>
	<g>
		<path fill="#FFFFFF" d="M338.731,87.469c1.856,0,3.04,0.804,3.04,2.07c0,0.874-0.543,1.572-1.42,1.821
			c1.041,0.2,1.704,1.016,1.704,2.093c0,1.407-1.229,2.294-3.182,2.294h-4.056v-8.278H338.731z M336.91,90.78h1.705
			c0.613,0,1.005-0.33,1.005-0.863c0-0.532-0.392-0.84-1.005-0.84h-1.705V90.78z M336.91,94.128h1.705
			c0.78,0,1.265-0.343,1.265-0.935c0-0.555-0.484-0.898-1.265-0.898h-1.705V94.128z"/>
	</g>
	<g>
		<path fill="#FFFFFF" d="M343.273,95.747v-8.278h2.105v8.278H343.273z"/>
	</g>
	<g>
		<path fill="#FFFFFF" d="M350.868,89.161v6.588h-2.105v-6.588h-2.472v-1.704h7.07v1.704H350.868z"/>
	</g>
	<g>
		<path fill="#FFFFFF" d="M358.095,89.161v6.588h-2.105v-6.588h-2.472v-1.704h7.071v1.704H358.095z"/>
	</g>
	<g>
		<path fill="#FFFFFF" d="M369.474,91.595c0,2.413-1.917,4.247-4.482,4.247c-2.554,0-4.471-1.822-4.471-4.247
			c0-2.411,1.917-4.197,4.471-4.197C367.557,87.398,369.474,89.196,369.474,91.595z M362.672,91.609
			c0,1.396,1.076,2.471,2.342,2.471c1.277,0,2.295-1.077,2.295-2.471c0-1.396-1.018-2.448-2.295-2.448
			C363.738,89.161,362.672,90.213,362.672,91.609z"/>
	</g>
	<g>
		<path fill="#FFFFFF" d="M374.348,93.418h-0.062h-1.595v2.331h-2.105v-8.279h3.7c2.188,0,3.442,1.04,3.442,2.886
			c0,1.266-0.531,2.177-1.5,2.661l1.736,2.732h-2.389L374.348,93.418z M374.289,91.761c0.909,0,1.442-0.461,1.442-1.336
			c0-0.863-0.533-1.3-1.442-1.3h-1.598v2.638h1.598V91.761z"/>
	</g>
	<g>
		<path fill="#FFFFFF" d="M382.911,93.418h-0.061h-1.595v2.331h-2.105v-8.279h3.7c2.188,0,3.441,1.04,3.441,2.886
			c0,1.266-0.531,2.177-1.501,2.661l1.738,2.732h-2.389L382.911,93.418z M382.852,91.761c0.911,0,1.443-0.461,1.443-1.336
			c0-0.863-0.532-1.3-1.443-1.3h-1.596v2.638h1.596V91.761z"/>
	</g>
	<g>
		<path fill="#FFFFFF" d="M389.82,89.126v1.643h3.949v1.656h-3.949v1.668h4.506v1.656h-6.612v-8.279h6.481v1.656H389.82z"/>
	</g>
	<g>
		<path fill="#FFFFFF" d="M401.471,95.747l-3.81-5.097v5.097h-1.974v-8.278h1.857l3.82,5.109v-5.109h1.963v8.278H401.471z"/>
	</g>
	<g>
		<path fill="#FFFFFF" d="M408.815,89.161v6.588h-2.104v-6.588h-2.472v-1.704h7.072v1.704H408.815z"/>
	</g>
	<g>
		<path fill="#FFFFFF" d="M417.062,89.126v1.915h3.713v1.656h-3.713v3.052h-2.105v-8.279h6.138v1.656H417.062z"/>
	</g>
	<g>
		<path fill="#FFFFFF" d="M425.86,93.418h-0.06h-1.596v2.331h-2.106v-8.279h3.702c2.188,0,3.441,1.04,3.441,2.886
			c0,1.266-0.533,2.177-1.501,2.661l1.738,2.732h-2.389L425.86,93.418z M425.801,91.761c0.911,0,1.443-0.461,1.443-1.336
			c0-0.863-0.532-1.3-1.443-1.3h-1.596v2.638h1.596V91.761z"/>
	</g>
	<g>
		<path fill="#FFFFFF" d="M432.544,94.222l-0.603,1.524h-2.165l3.572-8.278h2.163l3.489,8.278h-2.248l-0.591-1.524H432.544z
			 M434.365,89.562l-1.206,3.063h2.39L434.365,89.562z"/>
	</g>
	<g>
		<path fill="#FFFFFF" d="M445.556,95.747l-3.81-5.097v5.097h-1.974v-8.278h1.857l3.819,5.109v-5.109h1.963v8.278H445.556z"/>
	</g>
	<g>
		<path fill="#FFFFFF" d="M456.283,88.793l-1.218,1.444c-0.544-0.662-1.349-1.076-2.083-1.076c-1.312,0-2.307,1.04-2.307,2.399
			c0,1.385,0.994,2.438,2.307,2.438c0.698,0,1.502-0.38,2.083-0.972l1.229,1.303c-0.886,0.91-2.199,1.514-3.419,1.514
			c-2.493,0-4.351-1.834-4.351-4.259c0-2.388,1.904-4.187,4.424-4.187C454.178,87.398,455.455,87.942,456.283,88.793z"/>
	</g>
	<g>
		<path fill="#FFFFFF" d="M465.521,91.595c0,2.413-1.918,4.247-4.482,4.247c-2.555,0-4.471-1.822-4.471-4.247
			c0-2.411,1.916-4.197,4.471-4.197C463.605,87.398,465.521,89.196,465.521,91.595z M458.721,91.609
			c0,1.396,1.077,2.471,2.343,2.471c1.276,0,2.294-1.077,2.294-2.471c0-1.396-1.017-2.448-2.294-2.448
			C459.785,89.161,458.721,90.213,458.721,91.609z"/>
	</g>
	<g>
		<path fill="#FFFFFF" d="M470.241,87.469c2.117,0,3.334,1.041,3.334,2.887c0,1.938-1.217,3.062-3.334,3.062h-1.502v2.33h-2.105
			v-8.278H470.241z M468.739,91.761h1.396c0.923,0,1.455-0.461,1.455-1.336c0-0.863-0.533-1.3-1.455-1.3h-1.396V91.761z"/>
	</g>
	<g>
		<path fill="#FFFFFF" d="M480.211,95.747V92.53h-3.428v3.217h-2.104v-8.278h2.104v3.406h3.43v-3.406h2.104v8.278H480.211z"/>
	</g>
	<g>
		<path fill="#FFFFFF" d="M492.384,91.595c0,2.413-1.916,4.247-4.483,4.247c-2.555,0-4.47-1.822-4.47-4.247
			c0-2.411,1.915-4.197,4.47-4.197C490.468,87.398,492.384,89.196,492.384,91.595z M485.583,91.609c0,1.396,1.077,2.471,2.342,2.471
			c1.275,0,2.294-1.077,2.294-2.471c0-1.396-1.017-2.448-2.294-2.448S485.583,90.213,485.583,91.609z"/>
	</g>
	<g>
		<path fill="#FFFFFF" d="M499.281,95.747l-3.811-5.097v5.097h-1.974v-8.278h1.857l3.82,5.109v-5.109h1.964v8.278H499.281z"/>
	</g>
	<g>
		<path fill="#FFFFFF" d="M504.899,89.126v1.643h3.95v1.656h-3.95v1.668h4.506v1.656h-6.611v-8.279h6.48v1.656H504.899z"/>
	</g>
</g>
<g>
	<path fill="#FFFFFF" d="M243.157,33.797v42.265h-2.698V33.797H225.3v-2.634h33.015v2.634H243.157z"/>
	<path fill="#FFFFFF" d="M302.762,53.58c0,12.461-10.405,22.546-23.251,22.546c-12.847,0-23.252-10.085-23.252-22.546
		c0-12.461,10.405-22.481,23.252-22.481C292.356,31.099,302.762,41.119,302.762,53.58z M259.021,53.58
		c0,10.983,9.249,19.912,20.489,19.912s20.49-8.929,20.49-19.912c0-10.984-9.25-19.848-20.49-19.848S259.021,42.596,259.021,53.58z"
		/>
	<path fill="#FFFFFF" d="M330.377,60.839c-1.22,0.192-2.44,0.257-3.789,0.257H313.42v14.967h-2.698V31.163h15.866
		c11.112,0,17.407,5.396,17.407,14.773c0,7.644-3.918,12.654-11.048,14.453l11.24,15.673h-3.212L330.377,60.839z M326.652,58.463
		c9.377,0,14.708-4.433,14.708-12.462c0-7.9-5.331-12.204-14.708-12.204H313.42v24.666H326.652z"/>
	<path fill="#FFFFFF" d="M374.051,60.839c-1.221,0.192-2.441,0.257-3.79,0.257h-13.168v14.967h-2.697V31.163h15.865
		c11.112,0,17.407,5.396,17.407,14.773c0,7.644-3.918,12.654-11.048,14.453l11.24,15.673h-3.212L374.051,60.839z M370.325,58.463
		c9.378,0,14.709-4.433,14.709-12.462c0-7.9-5.331-12.204-14.709-12.204h-13.232v24.666H370.325z"/>
	<path fill="#FFFFFF" d="M400.766,33.797v17.92h23.381v2.698h-23.381v19.012h27.106v2.635h-29.804V31.163h28.969v2.634H400.766z"/>
	<path fill="#FFFFFF" d="M469.555,76.062l-29.933-40.788v40.788h-2.698V31.163h3.147l29.997,40.788V31.163h2.634v44.899H469.555z"/>
	<path fill="#FFFFFF" d="M496.335,33.797v42.265h-2.698V33.797h-15.158v-2.634h33.015v2.634H496.335z"/>
</g>
</svg>
