<?xml version="1.0" encoding="UTF-8"?>
<svg id="Layer_1" data-name="Layer 1" xmlns="http://www.w3.org/2000/svg" xmlns:xlink="http://www.w3.org/1999/xlink" viewBox="0 0 1500 361.78">
  <defs>
    <style>
      .cls-1 {
        fill: url(#linear-gradient);
      }

      .cls-1, .cls-2, .cls-3, .cls-4, .cls-5, .cls-6, .cls-7, .cls-8, .cls-9, .cls-10, .cls-11 {
        stroke-width: 0px;
      }

      .cls-2 {
        fill: url(#linear-gradient-6);
      }

      .cls-3 {
        fill: url(#linear-gradient-11);
      }

      .cls-4 {
        fill: url(#linear-gradient-5);
      }

      .cls-5 {
        fill: url(#linear-gradient-2);
      }

      .cls-6 {
        fill: url(#linear-gradient-7);
      }

      .cls-7 {
        fill: url(#linear-gradient-3);
      }

      .cls-8 {
        fill: url(#linear-gradient-9);
      }

      .cls-9 {
        fill: url(#linear-gradient-8);
      }

      .cls-10 {
        fill: url(#linear-gradient-10);
      }

      .cls-11 {
        fill: url(#linear-gradient-4);
      }
    </style>
    <linearGradient id="linear-gradient" x1="893.82" y1="188.28" x2="893.82" y2="385.38" gradientUnits="userSpaceOnUse">
      <stop offset="0" stop-color="#64c655"/>
      <stop offset="1" stop-color="#54a84a"/>
    </linearGradient>
    <linearGradient id="linear-gradient-2" x1="1026.59" x2="1026.59" y2="385.38" xlink:href="#linear-gradient"/>
    <linearGradient id="linear-gradient-3" x1="95.92" y1="119.5" x2="95.92" y2="400.01" xlink:href="#linear-gradient"/>
    <linearGradient id="linear-gradient-4" x1="235.77" y1="121.64" x2="235.77" y2="398.8" xlink:href="#linear-gradient"/>
    <linearGradient id="linear-gradient-5" x1="420.95" y1="121.63" x2="420.95" y2="398.38" xlink:href="#linear-gradient"/>
    <linearGradient id="linear-gradient-6" x1="585.32" y1="121.63" x2="585.32" y2="398.38" xlink:href="#linear-gradient"/>
    <linearGradient id="linear-gradient-7" x1="762.63" y1="121.64" x2="762.63" y2="398.8" xlink:href="#linear-gradient"/>
    <linearGradient id="linear-gradient-8" x1="960.21" y1="121.63" x2="960.21" y2="398.38" xlink:href="#linear-gradient"/>
    <linearGradient id="linear-gradient-9" x1="1140.82" y1="119.38" x2="1140.82" y2="400.45" xlink:href="#linear-gradient"/>
    <linearGradient id="linear-gradient-10" x1="1318.24" y1="121.86" x2="1318.24" y2="398.2" xlink:href="#linear-gradient"/>
    <linearGradient id="linear-gradient-11" x1="1452.49" y1="108.24" x2="1452.49" y2="383.4" xlink:href="#linear-gradient"/>
  </defs>
  <g>
    <rect class="cls-1" x="879.34" y="307.88" width="28.98" height="23.22"/>
    <rect class="cls-5" x="1012.1" y="307.88" width="28.98" height="23.22"/>
  </g>
  <g>
    <g>
      <path class="cls-7" d="m110.51,278.22c-16.27,0-29.51-13.02-29.51-29.02V100.01h-41.18c-15.78,0-28.63-12.61-28.65-28.12h140.85c15.78,0,28.63,12.61,28.65,28.12h-70.12v178.21h-.04Z"/>
      <path class="cls-11" d="m235.78,281.93c-50.52,0-87.2-35.43-87.2-84.24s36.67-84.15,87.2-84.15,87.19,35.39,87.19,84.15-36.67,84.24-87.19,84.24Zm0-140.58c-34.15,0-57.99,23.17-57.99,56.34s23.31,56.33,57.99,56.33,57.89-23.16,57.89-56.33-23.81-56.34-57.89-56.34Z"/>
      <path class="cls-4" d="m352.58,278.22v-96.65c0-41.96,26.25-68.03,68.51-68.03s68.23,26.07,68.23,68.03v13.07h-28.69v-13.07c0-26.67-13.3-40.19-39.53-40.19s-39.53,13.52-39.53,40.19v96.65h-28.98Z"/>
      <path class="cls-2" d="m516.96,278.22v-96.65c0-41.96,26.25-68.03,68.51-68.03s68.22,26.07,68.22,68.03v13.07h-28.69v-13.07c0-26.67-13.3-40.19-39.53-40.19s-39.53,13.52-39.53,40.19v96.65h-28.98Z"/>
      <path class="cls-6" d="m762.77,281.91c-50.55,0-87.24-35.4-87.24-84.19s36.69-84.19,87.24-84.19,86.95,35.41,86.95,84.19v11.11h-144.49l2.3,7.56c7.19,23.58,27.83,37.66,55.24,37.66,17.41,0,38.49-2.57,49.76-21.79l33.16-.11c-16.18,28.49-50.87,49.77-82.92,49.77Zm0-140.59c-24.07,0-43.84,11.74-52.91,31.41l-3.83,8.3h113.22l-3.77-8.27c-8.96-19.68-28.66-31.43-52.72-31.43Z"/>
      <path class="cls-9" d="m1012.1,278.22v-83.9c0-33.65-18.91-52.94-51.89-52.94s-51.89,19.3-51.89,52.94v83.9h-28.98v-83.9c0-50.58,30.23-80.78,80.87-80.78s80.87,30.2,80.87,80.78v83.9h-28.98Z"/>
      <path class="cls-8" d="m1140.97,281.9c-39.78,0-64.49-24.55-64.49-64.07V67.63h.04c15.95,0,28.93,12.76,28.93,28.45v21.13h63.89c15.47,0,28.05,12.36,28.07,27.56h-91.96v73.06c0,24.04,11.95,36.23,35.52,36.23s35.8-12.19,35.8-36.23c0-7.05,5.86-12.79,13.05-12.79h15.35v12.79c0,39.52-24.6,64.07-64.2,64.07Z"/>
      <path class="cls-10" d="m1233.1,278.22c.01-13.05,4.92-25.57,13.81-35.25l90.05-97.92h-99.54c.02-15.36,12.74-27.84,28.36-27.84h137.61l-20.88,20.21-103.88,112.96h78.37c15.63,0,28.34,12.48,28.36,27.84h-152.26Z"/>
    </g>
    <path class="cls-3" d="m1422.29,128.33l23.51-23.98-6.01-1.87c-17.92-5.57-28.02-22.17-25.15-41.31,2.98-19.44,17.85-32.49,37.01-32.49,2.18,0,4.4.16,6.61.49,10.1,1.46,19.02,6.78,25.13,14.99,6.13,8.26,8.6,18.33,6.95,28.37-2.11,13.03-8.76,20.08-13.15,24.74l-33.45,34.26-21.43-3.19Zm29.37-82.57c-10.61,0-17.67,6.53-19.36,17.91-.96,6.28.19,11.8,3.33,15.97,3.01,4.01,7.74,6.59,13.68,7.45,1.36.21,2.69.31,3.96.31,10.41,0,17.93-6.91,19.61-18.04.93-6.17-.17-11.58-3.19-15.67-3.01-4.08-7.86-6.72-14.03-7.64-1.36-.19-2.7-.29-4-.29Z"/>
  </g>
</svg>